<?xml version="1.0" encoding="UTF-8"?>
<!DOCTYPE svg PUBLIC "-//W3C//DTD SVG 1.1//EN" "http://www.w3.org/Graphics/SVG/1.1/DTD/svg11.dtd">
<!-- Creator: CorelDRAW 2020 (64-Bit) -->
<svg xmlns="http://www.w3.org/2000/svg" xml:space="preserve" width="244.46mm" height="45.1806mm" version="1.1" style="shape-rendering:geometricPrecision; text-rendering:geometricPrecision; image-rendering:optimizeQuality; fill-rule:evenodd; clip-rule:evenodd"
viewBox="0 0 24444.42 4517.77"
 xmlns:xlink="http://www.w3.org/1999/xlink"
 xmlns:xodm="http://www.corel.com/coreldraw/odm/2003">
 <defs>
  <style type="text/css">
   <![CDATA[
    .fil6 {fill:none}
    .fil3 {fill:#FAC22D}
    .fil5 {fill:#282829}
    .fil7 {fill:black}
    .fil4 {fill:#FDC20D}
    .fil0 {fill:#FEFEFE;fill-rule:nonzero}
    .fil2 {fill:black;fill-rule:nonzero}
    .fil1 {fill:#FDC20D;fill-rule:nonzero}
   ]]>
  </style>
     <clipPath id="id0">
      <path d="M2259.39 133.08c1174.33,0 2126.29,951.75 2126.29,2125.8 0,1174.04 -951.96,2125.8 -2126.3,2125.79 -1174.31,0.01 -2126.29,-951.76 -2126.29,-2125.79 0,-1174.05 951.98,-2125.8 2126.3,-2125.8z"/>
     </clipPath>
     <clipPath id="id1">
      <path d="M2259.39 133.08c1174.33,0 2126.29,951.75 2126.29,2125.8 0,1174.04 -951.96,2125.8 -2126.3,2125.79 -1174.31,0.01 -2126.29,-951.76 -2126.29,-2125.79 0,-1174.05 951.98,-2125.8 2126.3,-2125.8z"/>
     </clipPath>
    <clipPath id="id2">
     <path d="M2259.39 133.08c1174.33,0 2126.29,951.75 2126.29,2125.8 0,1174.04 -951.96,2125.8 -2126.3,2125.79 -1174.31,0.01 -2126.29,-951.76 -2126.29,-2125.79 0,-1174.05 951.98,-2125.8 2126.3,-2125.8z"/>
    </clipPath>
 </defs>
 <g id="Layer_x0020_1">
  <metadata id="CorelCorpID_0Corel-Layer"/>
  <g id="_2100262768240">
   <g>
    <g>
     <path class="fil0" d="M5390.65 3093.8l254.37 0 0 -1632.78 -254.37 0 0 -409.06 1154.99 0c112.28,0 217.71,21.78 316.24,65.32 98.54,43.54 184.48,103.12 257.81,178.75 73.33,75.63 131.19,163.85 173.59,264.68 42.4,100.83 63.59,208.54 63.59,323.12 0,114.58 -21.19,222.29 -63.59,323.12 -42.4,100.83 -100.26,189.06 -173.59,264.68 -73.34,75.63 -159.27,135.2 -257.81,178.75 -98.53,43.54 -203.96,65.31 -316.24,65.31l-330 0 0 378.13 271.56 0 0 409.05 -1096.55 0 0 -409.05zm824.99 -1567.48l0 714.99 257.8 0c43.55,0 84.79,-9.17 123.75,-27.51 38.96,-18.33 73.34,-43.54 103.12,-75.62 29.79,-32.09 53.29,-69.9 70.47,-113.43 17.19,-43.55 25.79,-89.38 25.79,-137.5 0,-50.42 -8.6,-97.39 -25.79,-140.94 -17.18,-43.54 -40.68,-81.35 -70.47,-113.43 -29.79,-32.09 -64.17,-57.87 -103.12,-77.35 -38.96,-19.48 -80.2,-29.22 -123.75,-29.22l-257.8 0zm2340.9 1976.53l-1031.23 0 0 -388.43 244.05 0 0 -955.61 -244.05 0 0 -388.42 787.18 0 0 1344.03 244.05 0 0 388.43zm-787.18 -2450.9l543.12 0 0 498.44 -543.12 0 0 -498.44zm972.8 718.43l1471.22 0 -766.55 1309.66 319.68 0 89.37 -299.05 357.5 99.68 -171.88 622.18 -1385.28 0 769.99 -1309.67 -295.62 0 0 244.05 -388.43 0 0 -666.86zm1663.72 0l1471.21 0 -766.54 1309.66 319.68 0 89.37 -299.05 357.49 99.68 -171.87 622.18 -1385.28 0 769.98 -1309.67 -295.62 0 0 244.05 -388.42 0 0 -666.86zm2945.89 1564.03c-77.92,80.2 -158.7,137.5 -242.34,171.87 -83.64,34.38 -167.86,51.57 -252.65,51.57 -114.58,0 -221.15,-24.64 -319.68,-73.91 -98.54,-49.27 -183.91,-115.72 -256.09,-199.37 -72.19,-83.65 -128.9,-181.04 -170.15,-292.19 -41.25,-111.14 -61.88,-228.59 -61.88,-352.34 0,-119.16 19.48,-234.88 58.44,-347.18 38.96,-112.29 93.38,-210.83 163.28,-295.62 69.9,-84.79 153.54,-152.96 250.93,-204.53 97.39,-51.56 204.53,-77.34 321.4,-77.34 153.54,0 307.08,64.16 460.62,192.49l0 -137.49 708.1 0 0 388.42 -161.56 0 0 955.61 244.06 0 0 388.43 -697.8 0 -44.68 -168.44zm-763.12 -690.93c0,68.76 9.17,133.49 27.51,194.22 18.33,60.73 43.54,114.01 75.62,159.84 32.09,45.84 69.9,81.92 113.43,108.28 43.55,26.35 90.52,39.53 140.94,39.53 100.83,0 185.62,-44.12 254.36,-132.34 68.76,-88.22 103.13,-211.41 103.13,-369.53 0,-75.63 -9.17,-146.09 -27.5,-211.4 -18.34,-65.32 -43.55,-120.88 -75.64,-166.72 -32.08,-45.84 -69.89,-81.92 -113.43,-108.28 -43.54,-26.35 -90.51,-39.53 -140.93,-39.53 -50.42,0 -97.39,14.9 -140.94,44.69 -43.54,29.79 -81.34,69.33 -113.43,118.59 -32.08,49.27 -57.29,105.41 -75.62,168.43 -18.34,63.03 -27.51,127.76 -27.51,194.22zm-4577.84 -1835.72c237.11,0 429.33,192.18 429.33,429.23 0,237.05 -192.22,429.23 -429.33,429.23 -237.11,0 -429.33,-192.18 -429.33,-429.23 0,-237.05 192.22,-429.23 429.33,-429.23z"/>
     <path class="fil0" d="M18944.54 1928.51l0 -206.25c-155.83,-174.17 -328.86,-261.25 -519.06,-261.25 -103.12,0 -197.09,20.06 -281.87,60.16 -84.79,40.11 -157.55,95.67 -218.28,166.72 -60.73,71.05 -108.28,155.26 -142.65,252.65 -34.38,97.39 -51.57,202.24 -51.57,314.53 0,114.57 17.19,222.29 51.57,323.11 34.37,100.83 81.92,189.07 142.65,264.69 60.73,75.62 133.48,135.2 218.28,178.75 84.78,43.53 178.75,65.31 281.87,65.31 82.49,0 166.14,-17.19 250.93,-51.57 84.78,-34.37 156.97,-84.78 216.56,-151.24l0 -330 -429.68 0 0 -385 1192.79 0 0 385 -254.36 0 0 446.87c-110,169.58 -246.35,304.78 -409.06,405.61 -162.7,100.83 -351.76,151.25 -567.17,151.25 -183.33,0 -351.77,-33.23 -505.31,-99.69 -153.54,-66.46 -285.3,-158.11 -395.3,-274.99 -109.99,-116.87 -195.93,-254.94 -257.8,-414.2 -61.88,-159.27 -92.81,-330.57 -92.81,-513.9 0,-178.75 30.94,-345.47 92.81,-500.15 61.88,-154.69 147.81,-288.75 257.8,-402.18 110,-113.43 241.76,-202.81 395.3,-268.12 153.54,-65.31 321.98,-97.96 505.31,-97.96 201.67,0 380.98,44.11 537.96,132.34 156.98,88.22 287.03,204.53 390.15,348.9l0 460.62 -409.05 0zm1591.53 -165l17.19 147.81c64.17,-66.46 139.22,-118.02 225.16,-154.69 85.93,-36.66 180.46,-55 283.58,-55l0 498.43c-61.88,0 -121.45,8.02 -178.75,24.07 -57.29,16.04 -107.12,42.39 -149.52,79.05 -42.4,36.67 -76.78,85.36 -103.12,146.09 -26.36,60.73 -39.54,136.93 -39.54,228.59l0 429.69 261.24 0 0 388.42 -1051.85 0 0 -388.42 244.06 0 0 -955.62 -244.06 0 0 -388.42 735.61 0zm1777.17 1732.47l-1031.23 0 0 -388.42 244.05 0 0 -955.62 -244.05 0 0 -388.42 787.17 0 0 1344.04 244.06 0 0 388.42zm1065.6 0l-787.18 0 0 -2062.47 -244.05 0 0 -388.42 787.17 0 0 2062.47 244.06 0 0 388.42zm1065.6 0l-787.17 0 0 -2062.47 -244.06 0 0 -388.42 787.18 0 0 2062.47 244.05 0 0 388.42zm-2723.78 -2688.21c237.11,0 429.33,192.18 429.33,429.23 0,237.05 -192.22,429.23 -429.33,429.23 -237.11,0 -429.33,-192.18 -429.33,-429.23 0,-237.05 192.22,-429.23 429.33,-429.23z"/>
    </g>
    <path class="fil1" d="M16994.61 3231.85l-1156.17 -2213.65c-8.37,-16.74 -22.34,-31.66 -40.02,-40.95 -45.63,-23.27 -101.46,-5.6 -125.68,40.04l-1157.08 2214.56 0 0c-22.34,42.84 -8.38,95.89 32.58,121.96 743.77,474.74 1669.08,474.74 2412.84,0.91 40.97,-26.05 55.86,-79.11 33.52,-122.87l0 0z"/>
    <path class="fil2" d="M16093.68 3334.52l-130.78 -167.86c-32.54,27.33 -63.44,51.73 -92.71,73.2 -29.28,21.48 -59.54,39.69 -90.76,54.66 -31.23,14.97 -64.74,26.03 -100.52,33.19 -35.79,7.15 -76.45,10.73 -121.99,10.73 -67.67,0 -128.18,-11.06 -181.53,-33.19 -53.36,-22.12 -98.25,-51.72 -134.69,-88.8 -36.44,-37.09 -64.08,-79.38 -82.94,-126.88 -18.87,-47.5 -28.31,-97.26 -28.31,-149.32 0,-80.67 26.02,-160.38 78.07,-239.1 52.05,-78.72 134.68,-145.42 247.89,-200.08 -16.92,-19.52 -33.51,-40.66 -49.78,-63.44 -16.26,-22.77 -31.23,-47.5 -44.89,-74.18 -13.67,-26.67 -24.73,-54.32 -33.19,-82.94 -8.46,-28.64 -12.69,-57.92 -12.69,-87.84 0,-45.55 8.46,-87.5 25.38,-125.89 16.92,-38.39 40.99,-71.26 72.23,-98.58 31.23,-27.32 68.32,-48.47 111.25,-63.43 42.95,-14.97 89.79,-22.45 140.54,-22.45 35.14,0 71.57,6.18 109.3,18.54 37.74,12.37 72.23,31.24 103.45,56.61 31.23,25.38 56.94,57.58 77.11,96.62 20.17,39.04 30.25,85.88 30.25,140.53 0,48.16 -9.76,91.41 -29.28,129.8 -19.52,38.39 -42.29,72.23 -68.32,101.5 -26.03,29.28 -52.38,53.68 -79.05,73.2 -26.67,19.52 -47.82,33.19 -63.44,40.99l247.89 327.93c15.62,-22.13 28.63,-42.3 39.04,-60.52 10.41,-18.22 20.17,-36.76 29.28,-55.63 9.11,-18.87 17.57,-39.04 25.38,-60.51 7.81,-21.47 16.27,-45.88 25.38,-73.2l269.36 0 0 158.1 -140.54 0c-16.91,41.65 -36.44,81.98 -58.56,121.02 -22.12,39.04 -46.2,78.07 -72.23,117.11l208.86 265.46 -224.47 54.65zm-534.83 -683.17c-62.47,39.04 -113.21,82.63 -152.25,130.78 -39.04,48.15 -58.56,96.94 -58.56,146.39 0,28.63 5.85,55.96 17.57,81.98 11.71,26.03 28.63,48.8 50.75,68.32 22.12,19.52 48.47,35.14 79.05,46.85 30.58,11.71 65.39,17.57 104.42,17.57 50.76,0 97.27,-12.04 139.56,-36.12 42.3,-24.07 77.75,-49.77 106.38,-77.1l-286.93 -378.68zm240.08 -450.89c0,-48.15 -13.67,-83.6 -40.99,-106.38 -27.33,-22.77 -61.82,-34.16 -103.45,-34.16 -37.74,0 -70.6,11.39 -98.57,34.16 -27.98,22.78 -41.97,57.59 -41.97,104.43 0,26.03 8.46,55.63 25.38,88.8 16.92,33.19 50.1,71.91 99.54,116.14 49.45,-28.63 88.48,-59.21 117.11,-91.73 28.63,-32.54 42.95,-69.63 42.95,-111.26z"/>
    <ellipse class="fil3" cx="2259.39" cy="2258.88" rx="2259.41" ry="2258.88"/>
    <path class="fil4" d="M2259.39 198.78c1138.04,0 2060.58,922.34 2060.58,2060.11 0,1137.77 -922.54,2060.1 -2060.59,2060.09 -1138.03,0.01 -2060.58,-922.33 -2060.58,-2060.09 0,-1137.77 922.56,-2060.11 2060.59,-2060.11z"/>
    <path class="fil5" d="M2259.39 133.08c1174.33,0 2126.29,951.75 2126.29,2125.8 0,1174.04 -951.96,2125.8 -2126.3,2125.79 -1174.31,0.01 -2126.29,-951.76 -2126.29,-2125.79 0,-1174.05 951.98,-2125.8 2126.3,-2125.8z"/>
    <g style="clip-path:url(#id0)">
     <g>
      <path id="1" class="fil4" d="M2863.76 2946.12c-26.93,97.04 -279.02,494.8 -376.72,392.78 -66.77,-69.72 310.63,-364.72 376.72,-392.78zm1600.49 -489.8l92.6 1.28c-9.4,-59.93 -21.05,-119.09 -34.83,-177.44l-63.54 2.74c-144.85,16.37 -280.19,23.13 -426.34,48.9 -265.62,46.84 -443,100.08 -685.36,207.33 -19.53,-23.22 -23.19,-57.89 -45.21,-100.61 -63.06,-122.39 -169.29,-237.86 -330.46,-332.49 -156.21,-71.38 -428.46,-383.68 -181.46,-568.65 210.62,-157.72 162.8,195.92 178.99,232.58 49.74,25.5 96.78,3.97 141.44,-32.03 70.09,-317.27 -260.9,-346.93 -461.67,-208.37 -356.99,246.4 -117.23,538.44 -121.24,588.16 -59.2,129.88 -192.49,325.34 -277,450.63 -57.22,84.82 -257.21,400.65 -356.59,360.41 -36.32,-83.92 92.32,-552.76 112.62,-677.47 40.09,-246.36 94.47,-457.51 98.36,-713.81 1.41,-92.95 10.72,-266.24 -77.39,-324.81 -92.4,-61.4 -231.24,28.78 -294.78,89.46 -172.65,164.88 -207.74,285.5 -328.95,476.57 -1.21,-157.82 46.56,-355.19 8.55,-507.17 -99.55,-398.09 -862.17,154.25 -1075.73,276.2l-226.8 134.18c-29.82,54.15 -57.68,109.51 -83.3,166.12 201.3,-129.58 423.95,-264.8 635.79,-372.42 107.27,-54.51 371.8,-195.66 472.54,-95.25 39.16,78.86 -297.36,1104.56 -242.02,1315.67 49.25,187.89 230.39,64.89 319.78,-5.34 153.55,-120.61 118.13,-631.46 214.16,-824.73 65.95,-132.73 315.92,-591.98 463.78,-577.92 9.59,109.75 -129.09,607.91 -159.26,761.41 -42.43,215.97 -118.08,623.52 -38.29,827.69 230.98,591.02 826.99,-566.49 903.89,-657.43 58.91,56.65 140.79,177.51 199.52,242.74 92.23,102.44 128.07,172.39 121.42,315.04 -208.64,169.53 -156.89,87.98 -405.25,331.65 -204.48,200.61 -71.3,381.32 178.83,346.15 257.89,-36.27 501.69,-268.11 603.42,-506.39 59.72,-139.84 46.3,-166.15 67.94,-306.76 377.03,-148.86 693.08,-188.83 1101.84,-185.84z"/>
     </g>
    </g>
    <path class="fil6" d="M2259.39 133.08c1174.33,0 2126.29,951.75 2126.29,2125.8 0,1174.04 -951.96,2125.8 -2126.3,2125.79 -1174.31,0.01 -2126.29,-951.76 -2126.29,-2125.79 0,-1174.05 951.98,-2125.8 2126.3,-2125.8z"/>
   </g>
   <g>
    <g>
     <path class="fil0" d="M5390.65 3093.8l254.37 0 0 -1632.78 -254.37 0 0 -409.06 1154.99 0c112.28,0 217.71,21.78 316.24,65.32 98.54,43.54 184.48,103.12 257.81,178.75 73.33,75.63 131.19,163.85 173.59,264.68 42.4,100.83 63.59,208.54 63.59,323.12 0,114.58 -21.19,222.29 -63.59,323.12 -42.4,100.83 -100.26,189.06 -173.59,264.68 -73.34,75.63 -159.27,135.2 -257.81,178.75 -98.53,43.54 -203.96,65.31 -316.24,65.31l-330 0 0 378.13 271.56 0 0 409.05 -1096.55 0 0 -409.05zm824.99 -1567.48l0 714.99 257.8 0c43.55,0 84.79,-9.17 123.75,-27.51 38.96,-18.33 73.34,-43.54 103.12,-75.62 29.79,-32.09 53.29,-69.9 70.47,-113.43 17.19,-43.55 25.79,-89.38 25.79,-137.5 0,-50.42 -8.6,-97.39 -25.79,-140.94 -17.18,-43.54 -40.68,-81.35 -70.47,-113.43 -29.79,-32.09 -64.17,-57.87 -103.12,-77.35 -38.96,-19.48 -80.2,-29.22 -123.75,-29.22l-257.8 0zm2340.9 1976.53l-1031.23 0 0 -388.43 244.05 0 0 -955.61 -244.05 0 0 -388.42 787.18 0 0 1344.03 244.05 0 0 388.43zm-787.18 -2450.9l543.12 0 0 498.44 -543.12 0 0 -498.44zm972.8 718.43l1471.22 0 -766.55 1309.66 319.68 0 89.37 -299.05 357.5 99.68 -171.88 622.18 -1385.28 0 769.99 -1309.67 -295.62 0 0 244.05 -388.43 0 0 -666.86zm1663.72 0l1471.21 0 -766.54 1309.66 319.68 0 89.37 -299.05 357.49 99.68 -171.87 622.18 -1385.28 0 769.98 -1309.67 -295.62 0 0 244.05 -388.42 0 0 -666.86zm2945.89 1564.03c-77.92,80.2 -158.7,137.5 -242.34,171.87 -83.64,34.38 -167.86,51.57 -252.65,51.57 -114.58,0 -221.15,-24.64 -319.68,-73.91 -98.54,-49.27 -183.91,-115.72 -256.09,-199.37 -72.19,-83.65 -128.9,-181.04 -170.15,-292.19 -41.25,-111.14 -61.88,-228.59 -61.88,-352.34 0,-119.16 19.48,-234.88 58.44,-347.18 38.96,-112.29 93.38,-210.83 163.28,-295.62 69.9,-84.79 153.54,-152.96 250.93,-204.53 97.39,-51.56 204.53,-77.34 321.4,-77.34 153.54,0 307.08,64.16 460.62,192.49l0 -137.49 708.1 0 0 388.42 -161.56 0 0 955.61 244.06 0 0 388.43 -697.8 0 -44.68 -168.44zm-763.12 -690.93c0,68.76 9.17,133.49 27.51,194.22 18.33,60.73 43.54,114.01 75.62,159.84 32.09,45.84 69.9,81.92 113.43,108.28 43.55,26.35 90.52,39.53 140.94,39.53 100.83,0 185.62,-44.12 254.36,-132.34 68.76,-88.22 103.13,-211.41 103.13,-369.53 0,-75.63 -9.17,-146.09 -27.5,-211.4 -18.34,-65.32 -43.55,-120.88 -75.64,-166.72 -32.08,-45.84 -69.89,-81.92 -113.43,-108.28 -43.54,-26.35 -90.51,-39.53 -140.93,-39.53 -50.42,0 -97.39,14.9 -140.94,44.69 -43.54,29.79 -81.34,69.33 -113.43,118.59 -32.08,49.27 -57.29,105.41 -75.62,168.43 -18.34,63.03 -27.51,127.76 -27.51,194.22zm-4577.84 -1835.72c237.11,0 429.33,192.18 429.33,429.23 0,237.05 -192.22,429.23 -429.33,429.23 -237.11,0 -429.33,-192.18 -429.33,-429.23 0,-237.05 192.22,-429.23 429.33,-429.23z"/>
     <path class="fil0" d="M18944.54 1928.51l0 -206.25c-155.83,-174.17 -328.86,-261.25 -519.06,-261.25 -103.12,0 -197.09,20.06 -281.87,60.16 -84.79,40.11 -157.55,95.67 -218.28,166.72 -60.73,71.05 -108.28,155.26 -142.65,252.65 -34.38,97.39 -51.57,202.24 -51.57,314.53 0,114.57 17.19,222.29 51.57,323.11 34.37,100.83 81.92,189.07 142.65,264.69 60.73,75.62 133.48,135.2 218.28,178.75 84.78,43.53 178.75,65.31 281.87,65.31 82.49,0 166.14,-17.19 250.93,-51.57 84.78,-34.37 156.97,-84.78 216.56,-151.24l0 -330 -429.68 0 0 -385 1192.79 0 0 385 -254.36 0 0 446.87c-110,169.58 -246.35,304.78 -409.06,405.61 -162.7,100.83 -351.76,151.25 -567.17,151.25 -183.33,0 -351.77,-33.23 -505.31,-99.69 -153.54,-66.46 -285.3,-158.11 -395.3,-274.99 -109.99,-116.87 -195.93,-254.94 -257.8,-414.2 -61.88,-159.27 -92.81,-330.57 -92.81,-513.9 0,-178.75 30.94,-345.47 92.81,-500.15 61.88,-154.69 147.81,-288.75 257.8,-402.18 110,-113.43 241.76,-202.81 395.3,-268.12 153.54,-65.31 321.98,-97.96 505.31,-97.96 201.67,0 380.98,44.11 537.96,132.34 156.98,88.22 287.03,204.53 390.15,348.9l0 460.62 -409.05 0zm1591.53 -165l17.19 147.81c64.17,-66.46 139.22,-118.02 225.16,-154.69 85.93,-36.66 180.46,-55 283.58,-55l0 498.43c-61.88,0 -121.45,8.02 -178.75,24.07 -57.29,16.04 -107.12,42.39 -149.52,79.05 -42.4,36.67 -76.78,85.36 -103.12,146.09 -26.36,60.73 -39.54,136.93 -39.54,228.59l0 429.69 261.24 0 0 388.42 -1051.85 0 0 -388.42 244.06 0 0 -955.62 -244.06 0 0 -388.42 735.61 0zm1777.17 1732.47l-1031.23 0 0 -388.42 244.05 0 0 -955.62 -244.05 0 0 -388.42 787.17 0 0 1344.04 244.06 0 0 388.42zm1065.6 0l-787.18 0 0 -2062.47 -244.05 0 0 -388.42 787.17 0 0 2062.47 244.06 0 0 388.42zm1065.6 0l-787.17 0 0 -2062.47 -244.06 0 0 -388.42 787.18 0 0 2062.47 244.05 0 0 388.42zm-2723.78 -2688.21c237.11,0 429.33,192.18 429.33,429.23 0,237.05 -192.22,429.23 -429.33,429.23 -237.11,0 -429.33,-192.18 -429.33,-429.23 0,-237.05 192.22,-429.23 429.33,-429.23z"/>
    </g>
    <path class="fil1" d="M16994.61 3231.85l-1156.17 -2213.65c-8.37,-16.74 -22.34,-31.66 -40.02,-40.95 -45.63,-23.27 -101.46,-5.6 -125.68,40.04l-1157.08 2214.56 0 0c-22.34,42.84 -8.38,95.89 32.58,121.96 743.77,474.74 1669.08,474.74 2412.84,0.91 40.97,-26.05 55.86,-79.11 33.52,-122.87l0 0z"/>
    <path class="fil2" d="M16093.68 3334.52l-130.78 -167.86c-32.54,27.33 -63.44,51.73 -92.71,73.2 -29.28,21.48 -59.54,39.69 -90.76,54.66 -31.23,14.97 -64.74,26.03 -100.52,33.19 -35.79,7.15 -76.45,10.73 -121.99,10.73 -67.67,0 -128.18,-11.06 -181.53,-33.19 -53.36,-22.12 -98.25,-51.72 -134.69,-88.8 -36.44,-37.09 -64.08,-79.38 -82.94,-126.88 -18.87,-47.5 -28.31,-97.26 -28.31,-149.32 0,-80.67 26.02,-160.38 78.07,-239.1 52.05,-78.72 134.68,-145.42 247.89,-200.08 -16.92,-19.52 -33.51,-40.66 -49.78,-63.44 -16.26,-22.77 -31.23,-47.5 -44.89,-74.18 -13.67,-26.67 -24.73,-54.32 -33.19,-82.94 -8.46,-28.64 -12.69,-57.92 -12.69,-87.84 0,-45.55 8.46,-87.5 25.38,-125.89 16.92,-38.39 40.99,-71.26 72.23,-98.58 31.23,-27.32 68.32,-48.47 111.25,-63.43 42.95,-14.97 89.79,-22.45 140.54,-22.45 35.14,0 71.57,6.18 109.3,18.54 37.74,12.37 72.23,31.24 103.45,56.61 31.23,25.38 56.94,57.58 77.11,96.62 20.17,39.04 30.25,85.88 30.25,140.53 0,48.16 -9.76,91.41 -29.28,129.8 -19.52,38.39 -42.29,72.23 -68.32,101.5 -26.03,29.28 -52.38,53.68 -79.05,73.2 -26.67,19.52 -47.82,33.19 -63.44,40.99l247.89 327.93c15.62,-22.13 28.63,-42.3 39.04,-60.52 10.41,-18.22 20.17,-36.76 29.28,-55.63 9.11,-18.87 17.57,-39.04 25.38,-60.51 7.81,-21.47 16.27,-45.88 25.38,-73.2l269.36 0 0 158.1 -140.54 0c-16.91,41.65 -36.44,81.98 -58.56,121.02 -22.12,39.04 -46.2,78.07 -72.23,117.11l208.86 265.46 -224.47 54.65zm-534.83 -683.17c-62.47,39.04 -113.21,82.63 -152.25,130.78 -39.04,48.15 -58.56,96.94 -58.56,146.39 0,28.63 5.85,55.96 17.57,81.98 11.71,26.03 28.63,48.8 50.75,68.32 22.12,19.52 48.47,35.14 79.05,46.85 30.58,11.71 65.39,17.57 104.42,17.57 50.76,0 97.27,-12.04 139.56,-36.12 42.3,-24.07 77.75,-49.77 106.38,-77.1l-286.93 -378.68zm240.08 -450.89c0,-48.15 -13.67,-83.6 -40.99,-106.38 -27.33,-22.77 -61.82,-34.16 -103.45,-34.16 -37.74,0 -70.6,11.39 -98.57,34.16 -27.98,22.78 -41.97,57.59 -41.97,104.43 0,26.03 8.46,55.63 25.38,88.8 16.92,33.19 50.1,71.91 99.54,116.14 49.45,-28.63 88.48,-59.21 117.11,-91.73 28.63,-32.54 42.95,-69.63 42.95,-111.26z"/>
    <ellipse class="fil3" cx="2259.39" cy="2258.88" rx="2259.41" ry="2258.88"/>
    <path class="fil4" d="M2259.39 198.78c1138.04,0 2060.58,922.34 2060.58,2060.11 0,1137.77 -922.54,2060.1 -2060.59,2060.09 -1138.03,0.01 -2060.58,-922.33 -2060.58,-2060.09 0,-1137.77 922.56,-2060.11 2060.59,-2060.11z"/>
    <path class="fil5" d="M2259.39 133.08c1174.33,0 2126.29,951.75 2126.29,2125.8 0,1174.04 -951.96,2125.8 -2126.3,2125.79 -1174.31,0.01 -2126.29,-951.76 -2126.29,-2125.79 0,-1174.05 951.98,-2125.8 2126.3,-2125.8z"/>
    <g style="clip-path:url(#id1)">
     <g>
      <path id="1" class="fil4" d="M2863.76 2946.12c-26.93,97.04 -279.02,494.8 -376.72,392.78 -66.77,-69.72 310.63,-364.72 376.72,-392.78zm1600.49 -489.8l92.6 1.28c-9.4,-59.93 -21.05,-119.09 -34.83,-177.44l-63.54 2.74c-144.85,16.37 -280.19,23.13 -426.34,48.9 -265.62,46.84 -443,100.08 -685.36,207.33 -19.53,-23.22 -23.19,-57.89 -45.21,-100.61 -63.06,-122.39 -169.29,-237.86 -330.46,-332.49 -156.21,-71.38 -428.46,-383.68 -181.46,-568.65 210.62,-157.72 162.8,195.92 178.99,232.58 49.74,25.5 96.78,3.97 141.44,-32.03 70.09,-317.27 -260.9,-346.93 -461.67,-208.37 -356.99,246.4 -117.23,538.44 -121.24,588.16 -59.2,129.88 -192.49,325.34 -277,450.63 -57.22,84.82 -257.21,400.65 -356.59,360.41 -36.32,-83.92 92.32,-552.76 112.62,-677.47 40.09,-246.36 94.47,-457.51 98.36,-713.81 1.41,-92.95 10.72,-266.24 -77.39,-324.81 -92.4,-61.4 -231.24,28.78 -294.78,89.46 -172.65,164.88 -207.74,285.5 -328.95,476.57 -1.21,-157.82 46.56,-355.19 8.55,-507.17 -99.55,-398.09 -862.17,154.25 -1075.73,276.2l-226.8 134.18c-29.82,54.15 -57.68,109.51 -83.3,166.12 201.3,-129.58 423.95,-264.8 635.79,-372.42 107.27,-54.51 371.8,-195.66 472.54,-95.25 39.16,78.86 -297.36,1104.56 -242.02,1315.67 49.25,187.89 230.39,64.89 319.78,-5.34 153.55,-120.61 118.13,-631.46 214.16,-824.73 65.95,-132.73 315.92,-591.98 463.78,-577.92 9.59,109.75 -129.09,607.91 -159.26,761.41 -42.43,215.97 -118.08,623.52 -38.29,827.69 230.98,591.02 826.99,-566.49 903.89,-657.43 58.91,56.65 140.79,177.51 199.52,242.74 92.23,102.44 128.07,172.39 121.42,315.04 -208.64,169.53 -156.89,87.98 -405.25,331.65 -204.48,200.61 -71.3,381.32 178.83,346.15 257.89,-36.27 501.69,-268.11 603.42,-506.39 59.72,-139.84 46.3,-166.15 67.94,-306.76 377.03,-148.86 693.08,-188.83 1101.84,-185.84z"/>
     </g>
    </g>
    <path class="fil6" d="M2259.39 133.08c1174.33,0 2126.29,951.75 2126.29,2125.8 0,1174.04 -951.96,2125.8 -2126.3,2125.79 -1174.31,0.01 -2126.29,-951.76 -2126.29,-2125.79 0,-1174.05 951.98,-2125.8 2126.3,-2125.8z"/>
   </g>
   <path class="fil0" d="M5390.65 3093.8l254.37 0 0 -1632.78 -254.37 0 0 -409.06 1154.99 0c112.28,0 217.71,21.78 316.24,65.32 98.54,43.54 184.48,103.12 257.81,178.75 73.33,75.63 131.19,163.85 173.59,264.68 42.4,100.83 63.59,208.54 63.59,323.12 0,114.58 -21.19,222.29 -63.59,323.12 -42.4,100.83 -100.26,189.06 -173.59,264.68 -73.34,75.63 -159.27,135.2 -257.81,178.75 -98.53,43.54 -203.96,65.31 -316.24,65.31l-330 0 0 378.13 271.56 0 0 409.05 -1096.55 0 0 -409.05zm824.99 -1567.48l0 714.99 257.8 0c43.55,0 84.79,-9.17 123.75,-27.51 38.96,-18.33 73.34,-43.54 103.12,-75.62 29.79,-32.09 53.29,-69.9 70.47,-113.43 17.19,-43.55 25.79,-89.38 25.79,-137.5 0,-50.42 -8.6,-97.39 -25.79,-140.94 -17.18,-43.54 -40.68,-81.35 -70.47,-113.43 -29.79,-32.09 -64.17,-57.87 -103.12,-77.35 -38.96,-19.48 -80.2,-29.22 -123.75,-29.22l-257.8 0zm2340.9 1976.53l-1031.23 0 0 -388.43 244.05 0 0 -955.61 -244.05 0 0 -388.42 787.18 0 0 1344.03 244.05 0 0 388.43zm-787.18 -2450.9l543.12 0 0 498.44 -543.12 0 0 -498.44zm972.8 718.43l1471.22 0 -766.55 1309.66 319.68 0 89.37 -299.05 357.5 99.68 -171.88 622.18 -1385.28 0 769.99 -1309.67 -295.62 0 0 244.05 -388.43 0 0 -666.86zm1663.72 0l1471.21 0 -766.54 1309.66 319.68 0 89.37 -299.05 357.49 99.68 -171.87 622.18 -1385.28 0 769.98 -1309.67 -295.62 0 0 244.05 -388.42 0 0 -666.86zm2945.89 1564.03c-77.92,80.2 -158.7,137.5 -242.34,171.87 -83.64,34.38 -167.86,51.57 -252.65,51.57 -114.58,0 -221.15,-24.64 -319.68,-73.91 -98.54,-49.27 -183.91,-115.72 -256.09,-199.37 -72.19,-83.65 -128.9,-181.04 -170.15,-292.19 -41.25,-111.14 -61.88,-228.59 -61.88,-352.34 0,-119.16 19.48,-234.88 58.44,-347.18 38.96,-112.29 93.38,-210.83 163.28,-295.62 69.9,-84.79 153.54,-152.96 250.93,-204.53 97.39,-51.56 204.53,-77.34 321.4,-77.34 153.54,0 307.08,64.16 460.62,192.49l0 -137.49 708.1 0 0 388.42 -161.56 0 0 955.61 244.06 0 0 388.43 -697.8 0 -44.68 -168.44zm-763.12 -690.93c0,68.76 9.17,133.49 27.51,194.22 18.33,60.73 43.54,114.01 75.62,159.84 32.09,45.84 69.9,81.92 113.43,108.28 43.55,26.35 90.52,39.53 140.94,39.53 100.83,0 185.62,-44.12 254.36,-132.34 68.76,-88.22 103.13,-211.41 103.13,-369.53 0,-75.63 -9.17,-146.09 -27.5,-211.4 -18.34,-65.32 -43.55,-120.88 -75.64,-166.72 -32.08,-45.84 -69.89,-81.92 -113.43,-108.28 -43.54,-26.35 -90.51,-39.53 -140.93,-39.53 -50.42,0 -97.39,14.9 -140.94,44.69 -43.54,29.79 -81.34,69.33 -113.43,118.59 -32.08,49.27 -57.29,105.41 -75.62,168.43 -18.34,63.03 -27.51,127.76 -27.51,194.22zm-4577.84 -1835.72c237.11,0 429.33,192.18 429.33,429.23 0,237.05 -192.22,429.23 -429.33,429.23 -237.11,0 -429.33,-192.18 -429.33,-429.23 0,-237.05 192.22,-429.23 429.33,-429.23z"/>
   <path class="fil0" d="M18944.54 1928.51l0 -206.25c-155.83,-174.17 -328.86,-261.25 -519.06,-261.25 -103.12,0 -197.09,20.06 -281.87,60.16 -84.79,40.11 -157.55,95.67 -218.28,166.72 -60.73,71.05 -108.28,155.26 -142.65,252.65 -34.38,97.39 -51.57,202.24 -51.57,314.53 0,114.57 17.19,222.29 51.57,323.11 34.37,100.83 81.92,189.07 142.65,264.69 60.73,75.62 133.48,135.2 218.28,178.75 84.78,43.53 178.75,65.31 281.87,65.31 82.49,0 166.14,-17.19 250.93,-51.57 84.78,-34.37 156.97,-84.78 216.56,-151.24l0 -330 -429.68 0 0 -385 1192.79 0 0 385 -254.36 0 0 446.87c-110,169.58 -246.35,304.78 -409.06,405.61 -162.7,100.83 -351.76,151.25 -567.17,151.25 -183.33,0 -351.77,-33.23 -505.31,-99.69 -153.54,-66.46 -285.3,-158.11 -395.3,-274.99 -109.99,-116.87 -195.93,-254.94 -257.8,-414.2 -61.88,-159.27 -92.81,-330.57 -92.81,-513.9 0,-178.75 30.94,-345.47 92.81,-500.15 61.88,-154.69 147.81,-288.75 257.8,-402.18 110,-113.43 241.76,-202.81 395.3,-268.12 153.54,-65.31 321.98,-97.96 505.31,-97.96 201.67,0 380.98,44.11 537.96,132.34 156.98,88.22 287.03,204.53 390.15,348.9l0 460.62 -409.05 0zm1591.53 -165l17.19 147.81c64.17,-66.46 139.22,-118.02 225.16,-154.69 85.93,-36.66 180.46,-55 283.58,-55l0 498.43c-61.88,0 -121.45,8.02 -178.75,24.07 -57.29,16.04 -107.12,42.39 -149.52,79.05 -42.4,36.67 -76.78,85.36 -103.12,146.09 -26.36,60.73 -39.54,136.93 -39.54,228.59l0 429.69 261.24 0 0 388.42 -1051.85 0 0 -388.42 244.06 0 0 -955.62 -244.06 0 0 -388.42 735.61 0zm1777.17 1732.47l-1031.23 0 0 -388.42 244.05 0 0 -955.62 -244.05 0 0 -388.42 787.17 0 0 1344.04 244.06 0 0 388.42zm1065.6 0l-787.18 0 0 -2062.47 -244.05 0 0 -388.42 787.17 0 0 2062.47 244.06 0 0 388.42zm1065.6 0l-787.17 0 0 -2062.47 -244.06 0 0 -388.42 787.18 0 0 2062.47 244.05 0 0 388.42zm-2723.78 -2688.21c237.11,0 429.33,192.18 429.33,429.23 0,237.05 -192.22,429.23 -429.33,429.23 -237.11,0 -429.33,-192.18 -429.33,-429.23 0,-237.05 192.22,-429.23 429.33,-429.23z"/>
   <path class="fil1" d="M16994.61 3231.85l-1156.17 -2213.65c-8.37,-16.74 -22.34,-31.66 -40.02,-40.95 -45.63,-23.27 -101.46,-5.6 -125.68,40.04l-1157.08 2214.56 0 0c-22.34,42.84 -8.38,95.89 32.58,121.96 743.77,474.74 1669.08,474.74 2412.84,0.91 40.97,-26.05 55.86,-79.11 33.52,-122.87l0 0z"/>
   <path class="fil2" d="M16093.68 3334.52l-130.78 -167.86c-32.54,27.33 -63.44,51.73 -92.71,73.2 -29.28,21.48 -59.54,39.69 -90.76,54.66 -31.23,14.97 -64.74,26.03 -100.52,33.19 -35.79,7.15 -76.45,10.73 -121.99,10.73 -67.67,0 -128.18,-11.06 -181.53,-33.19 -53.36,-22.12 -98.25,-51.72 -134.69,-88.8 -36.44,-37.09 -64.08,-79.38 -82.94,-126.88 -18.87,-47.5 -28.31,-97.26 -28.31,-149.32 0,-80.67 26.02,-160.38 78.07,-239.1 52.05,-78.72 134.68,-145.42 247.89,-200.08 -16.92,-19.52 -33.51,-40.66 -49.78,-63.44 -16.26,-22.77 -31.23,-47.5 -44.89,-74.18 -13.67,-26.67 -24.73,-54.32 -33.19,-82.94 -8.46,-28.64 -12.69,-57.92 -12.69,-87.84 0,-45.55 8.46,-87.5 25.38,-125.89 16.92,-38.39 40.99,-71.26 72.23,-98.58 31.23,-27.32 68.32,-48.47 111.25,-63.43 42.95,-14.97 89.79,-22.45 140.54,-22.45 35.14,0 71.57,6.18 109.3,18.54 37.74,12.37 72.23,31.24 103.45,56.61 31.23,25.38 56.94,57.58 77.11,96.62 20.17,39.04 30.25,85.88 30.25,140.53 0,48.16 -9.76,91.41 -29.28,129.8 -19.52,38.39 -42.29,72.23 -68.32,101.5 -26.03,29.28 -52.38,53.68 -79.05,73.2 -26.67,19.52 -47.82,33.19 -63.44,40.99l247.89 327.93c15.62,-22.13 28.63,-42.3 39.04,-60.52 10.41,-18.22 20.17,-36.76 29.28,-55.63 9.11,-18.87 17.57,-39.04 25.38,-60.51 7.81,-21.47 16.27,-45.88 25.38,-73.2l269.36 0 0 158.1 -140.54 0c-16.91,41.65 -36.44,81.98 -58.56,121.02 -22.12,39.04 -46.2,78.07 -72.23,117.11l208.86 265.46 -224.47 54.65zm-534.83 -683.17c-62.47,39.04 -113.21,82.63 -152.25,130.78 -39.04,48.15 -58.56,96.94 -58.56,146.39 0,28.63 5.85,55.96 17.57,81.98 11.71,26.03 28.63,48.8 50.75,68.32 22.12,19.52 48.47,35.14 79.05,46.85 30.58,11.71 65.39,17.57 104.42,17.57 50.76,0 97.27,-12.04 139.56,-36.12 42.3,-24.07 77.75,-49.77 106.38,-77.1l-286.93 -378.68zm240.08 -450.89c0,-48.15 -13.67,-83.6 -40.99,-106.38 -27.33,-22.77 -61.82,-34.16 -103.45,-34.16 -37.74,0 -70.6,11.39 -98.57,34.16 -27.98,22.78 -41.97,57.59 -41.97,104.43 0,26.03 8.46,55.63 25.38,88.8 16.92,33.19 50.1,71.91 99.54,116.14 49.45,-28.63 88.48,-59.21 117.11,-91.73 28.63,-32.54 42.95,-69.63 42.95,-111.26z"/>
   <ellipse class="fil3" cx="2259.39" cy="2258.88" rx="2259.41" ry="2258.88"/>
   <path class="fil4" d="M2259.39 198.78c1138.04,0 2060.58,922.34 2060.58,2060.11 0,1137.77 -922.54,2060.1 -2060.59,2060.09 -1138.03,0.01 -2060.58,-922.33 -2060.58,-2060.09 0,-1137.77 922.56,-2060.11 2060.59,-2060.11z"/>
   <path class="fil7" d="M2259.39 133.08c1174.33,0 2126.29,951.75 2126.29,2125.8 0,1174.04 -951.96,2125.8 -2126.3,2125.79 -1174.31,0.01 -2126.29,-951.76 -2126.29,-2125.79 0,-1174.05 951.98,-2125.8 2126.3,-2125.8z"/>
   <g style="clip-path:url(#id2)">
    <g>
     <path id="1" class="fil4" d="M2863.76 2946.12c-26.93,97.04 -279.02,494.8 -376.72,392.78 -66.77,-69.72 310.63,-364.72 376.72,-392.78zm1600.49 -489.8l92.6 1.28c-9.4,-59.93 -21.05,-119.09 -34.83,-177.44l-63.54 2.74c-144.85,16.37 -280.19,23.13 -426.34,48.9 -265.62,46.84 -443,100.08 -685.36,207.33 -19.53,-23.22 -23.19,-57.89 -45.21,-100.61 -63.06,-122.39 -169.29,-237.86 -330.46,-332.49 -156.21,-71.38 -428.46,-383.68 -181.46,-568.65 210.62,-157.72 162.8,195.92 178.99,232.58 49.74,25.5 96.78,3.97 141.44,-32.03 70.09,-317.27 -260.9,-346.93 -461.67,-208.37 -356.99,246.4 -117.23,538.44 -121.24,588.16 -59.2,129.88 -192.49,325.34 -277,450.63 -57.22,84.82 -257.21,400.65 -356.59,360.41 -36.32,-83.92 92.32,-552.76 112.62,-677.47 40.09,-246.36 94.47,-457.51 98.36,-713.81 1.41,-92.95 10.72,-266.24 -77.39,-324.81 -92.4,-61.4 -231.24,28.78 -294.78,89.46 -172.65,164.88 -207.74,285.5 -328.95,476.57 -1.21,-157.82 46.56,-355.19 8.55,-507.17 -99.55,-398.09 -862.17,154.25 -1075.73,276.2l-226.8 134.18c-29.82,54.15 -57.68,109.51 -83.3,166.12 201.3,-129.58 423.95,-264.8 635.79,-372.42 107.27,-54.51 371.8,-195.66 472.54,-95.25 39.16,78.86 -297.36,1104.56 -242.02,1315.67 49.25,187.89 230.39,64.89 319.78,-5.34 153.55,-120.61 118.13,-631.46 214.16,-824.73 65.95,-132.73 315.92,-591.98 463.78,-577.92 9.59,109.75 -129.09,607.91 -159.26,761.41 -42.43,215.97 -118.08,623.52 -38.29,827.69 230.98,591.02 826.99,-566.49 903.89,-657.43 58.91,56.65 140.79,177.51 199.52,242.74 92.23,102.44 128.07,172.39 121.42,315.04 -208.64,169.53 -156.89,87.98 -405.25,331.65 -204.48,200.61 -71.3,381.32 178.83,346.15 257.89,-36.27 501.69,-268.11 603.42,-506.39 59.72,-139.84 46.3,-166.15 67.94,-306.76 377.03,-148.86 693.08,-188.83 1101.84,-185.84z"/>
    </g>
   </g>
   <path class="fil6" d="M2259.39 133.08c1174.33,0 2126.29,951.75 2126.29,2125.8 0,1174.04 -951.96,2125.8 -2126.3,2125.79 -1174.31,0.01 -2126.29,-951.76 -2126.29,-2125.79 0,-1174.05 951.98,-2125.8 2126.3,-2125.8z"/>
  </g>
 </g>
</svg>
